<?xml version="1.0" encoding="utf-8"?>
<!-- Generator: Adobe Illustrator 21.1.0, SVG Export Plug-In . SVG Version: 6.00 Build 0)  -->
<svg version="1.1" id="Layer_1" xmlns="http://www.w3.org/2000/svg" xmlns:xlink="http://www.w3.org/1999/xlink" x="0px" y="0px"
	 viewBox="0 0 54 54" style="enable-background:new 0 0 54 54;" xml:space="preserve">
<style type="text/css">
	.st0{fill:none;}
</style>
<g>
	<rect x="-0.2" y="0.1" class="st0" width="53.8" height="53.4"/>
	<path d="M18.3,13v32.7c0,0.5-0.1,0.9-0.3,1.2c-0.2,0.3-0.6,0.5-1,0.5c-0.3,0-0.6-0.1-0.9-0.2L3,40.7c-0.4-0.2-0.7-0.5-1-0.9
		c-0.3-0.4-0.4-0.9-0.4-1.3V6.6c0-0.4,0.1-0.7,0.3-0.9c0.2-0.3,0.5-0.4,0.8-0.4C3,5.3,3.4,5.4,4,5.7l14.3,7.1
		C18.3,12.9,18.3,13,18.3,13z M20.1,15.8L35,40l-14.9-7.4V15.8z M51.6,13c0,0.1-2.4,4-7.2,11.7C39.6,32.4,36.8,37,36,38.3L25.1,20.6
		l9-14.7c0.3-0.5,0.8-0.8,1.5-0.8c0.3,0,0.5,0.1,0.7,0.2l15.1,7.5C51.5,12.8,51.6,12.9,51.6,13z M51.6,16.3v29.4
		c0,0.5-0.1,0.8-0.4,1.1c-0.3,0.3-0.6,0.4-1.1,0.4c-0.4,0-0.9-0.1-1.3-0.4l-12.3-6.1L51.6,16.3z"/>
</g>
</svg>
